<?xml version="1.0" standalone="no"?><!DOCTYPE svg PUBLIC "-//W3C//DTD SVG 1.1//EN" "http://www.w3.org/Graphics/SVG/1.1/DTD/svg11.dtd"><svg t="1707541560710" class="icon" viewBox="0 0 1061 1024" version="1.1" xmlns="http://www.w3.org/2000/svg" p-id="1801" xmlns:xlink="http://www.w3.org/1999/xlink" width="207.2265625" height="200"><path d="M59.695407 414.606222l325.025186 198.314667c74.865778 45.776593 197.594074 45.776593 272.535703 0l325.025185-198.162963c74.865778-45.738667 74.865778-120.490667 0-166.267259l-325.025185-198.314667c-74.903704-45.776593-197.669926-45.776593-272.573629 0l-325.025186 198.314667C-15.17037 294.07763-15.17037 369.019259 59.695407 414.606222z m922.396445 83.474963l-324.835556 198.125037c-74.903704 45.776593-197.669926 45.776593-272.573629 0l-325.025186-198.125037a139.757037 139.757037 0 0 1-36.219259-31.023407c-35.498667 43.84237-23.627852 98.797037 36.257185 135.243852l325.025186 198.27674c74.865778 45.776593 197.594074 45.776593 272.535703 0l325.025185-198.27674c59.657481-36.408889 71.68-91.401481 36.21926-135.243852a143.36 143.36 0 0 1-36.408889 31.023407z m0 187.695408l-324.835556 198.125037c-74.903704 45.776593-197.669926 45.776593-272.573629 0l-325.025186-198.125037a139.757037 139.757037 0 0 1-36.219259-31.061334c-35.498667 43.880296-23.627852 98.834963 36.257185 135.243852l325.025186 198.314667c74.865778 45.776593 197.594074 45.776593 272.535703 0l325.025185-198.125037c59.657481-36.408889 71.68-91.401481 36.21926-135.281778-9.178074 11.112296-21.238519 21.541926-36.408889 30.90963z" fill="#F29440" p-id="1802"></path></svg>