<svg t="1707632630090" class="icon" viewBox="0 0 1024 1024" version="1.1" xmlns="http://www.w3.org/2000/svg" p-id="27738" width="200" height="200"><path d="M540.444444 0C772.380444 0 967.111111 89.884444 967.111111 227.555556v568.888888c0 137.671111-194.730667 227.555556-426.666667 227.555556-226.645333 0-417.792-85.845333-426.382222-218.225778L113.777778 796.444444V227.555556l0.284444-9.329778C122.595556 85.902222 313.742222 0 540.444444 0z m0 739.555556c-122.368 0-234.382222-25.031111-312.888888-68.835556V796.444444c0 50.801778 136.362667 113.777778 312.888888 113.777778 171.178667 0 304.583111-59.164444 312.490667-109.112889L853.333333 796.444444l0.056889-125.781333C774.883556 714.524444 662.812444 739.555556 540.444444 739.555556z m312.945778-353.336889C774.883556 430.08 662.812444 455.111111 540.444444 455.111111 418.076444 455.111111 306.062222 430.08 227.555556 386.275556V512c0 50.801778 136.362667 113.777778 312.888888 113.777778 171.178667 0 304.583111-59.164444 312.490667-109.112889L853.333333 512zM540.444444 113.777778C363.918222 113.777778 227.555556 176.753778 227.555556 227.555556s136.362667 113.777778 312.888888 113.777777S853.333333 278.357333 853.333333 227.555556s-136.362667-113.777778-312.888889-113.777778z" fill="#2082FB" p-id="27739"></path><path d="M739.555556 739.555556a56.888889 56.888889 0 1 1 0 113.777777 56.888889 56.888889 0 0 1 0-113.777777z m0-284.444445a56.888889 56.888889 0 1 1 0 113.777778 56.888889 56.888889 0 0 1 0-113.777778z" fill="#F39422" p-id="27740"></path><path d="M540.444444 0C772.380444 0 967.111111 89.884444 967.111111 227.555556v568.888888c0 137.671111-194.730667 227.555556-426.666667 227.555556-226.645333 0-417.792-85.845333-426.382222-218.225778L113.777778 796.444444V227.555556l0.284444-9.329778C122.595556 85.902222 313.742222 0 540.444444 0z m0 739.555556c-122.368 0-234.382222-25.031111-312.888888-68.835556V796.444444c0 50.801778 136.362667 113.777778 312.888888 113.777778 171.178667 0 304.583111-59.164444 312.490667-109.112889L853.333333 796.444444l0.056889-125.781333C774.883556 714.524444 662.812444 739.555556 540.444444 739.555556z m312.945778-353.336889C774.883556 430.08 662.812444 455.111111 540.444444 455.111111 418.076444 455.111111 306.062222 430.08 227.555556 386.275556V512c0 50.801778 136.362667 113.777778 312.888888 113.777778 171.178667 0 304.583111-59.164444 312.490667-109.112889L853.333333 512zM540.444444 113.777778C363.918222 113.777778 227.555556 176.753778 227.555556 227.555556s136.362667 113.777778 312.888888 113.777777S853.333333 278.357333 853.333333 227.555556s-136.362667-113.777778-312.888889-113.777778z" fill="#2082FB" p-id="27741"></path><path d="M739.555556 739.555556a56.888889 56.888889 0 1 1 0 113.777777 56.888889 56.888889 0 0 1 0-113.777777z m0-284.444445a56.888889 56.888889 0 1 1 0 113.777778 56.888889 56.888889 0 0 1 0-113.777778z" fill="#F39422" p-id="27742"></path></svg>
