<svg t="1707630480920" class="icon" viewBox="0 0 1024 1024" version="1.1" xmlns="http://www.w3.org/2000/svg" p-id="20541" id="mx_n_1707630480921" width="200" height="200"><path d="M98.890966 167.476636C98.890966 259.987539 280.722741 334.953271 504.024922 334.953271c223.302181 0 405.133956-74.965732 405.133957-167.476635S727.327103 0 504.024922 0C280.722741 0 98.890966 74.965732 98.890966 167.476636z m0 0M504.024922 831.003115c-202.566978 0-370.043614-62.205607-398.753894-141.956386-4.785047 44.660436-6.380062 100.485981-6.380062 165.88162 0 92.510903 181.831776 169.071651 405.133956 169.071651 223.302181 0 405.133956-74.965732 405.133957-169.071651 0-66.990654-1.595016-121.221184-4.785047-167.476636-28.71028 81.345794-196.186916 143.551402-400.34891 143.551402z m0-334.953271c-202.566978 0-370.043614-62.205607-398.753894-141.956386-4.785047 44.660436-6.380062 98.890966-6.380062 165.88162 0 92.510903 181.831776 167.476636 405.133956 167.476635 223.302181 0 405.133956-74.965732 405.133957-167.476635 0-66.990654-1.595016-121.221184-4.785047-167.476636-28.71028 81.345794-196.186916 143.551402-400.34891 143.551402z m0 0" p-id="20542" fill="#e6e6e6"></path></svg>
