<svg t="1707630369351" class="icon" viewBox="0 0 1024 1024" version="1.1" xmlns="http://www.w3.org/2000/svg" p-id="16742" width="200" height="200"><path d="M451 416.2c-243.5 0-385.8-60.7-385.8-135.5v-81.2c0-74.7 142.3-135.4 385.8-135.4 243.6 0 413.4 60.6 413.4 135.4v81.2c0 74.8-169.8 135.5-413.4 135.5z m-34.1 350.3c14.9 78.3 61.6 145.9 127.2 190.5-24.4 1.2-49.3 2-74.8 2-255.1 0-404.2-61.2-404.2-136.8V712.8c0-14.2 6.7-28.1 20.4-41 53.9 50.7 156.2 88.6 331.4 94.7z m-8.6-95.2c-217.5-8.6-343.1-66.4-343.1-136.4V424.7c0-14.4 6.6-28.2 20.2-41.3 58.3 55.9 173.8 96.4 378.6 96.4l16.2-0.1c-46.1 53.2-71.6 121.2-71.9 191.6z m296-222.7c141.1 0 255.5 114.4 255.5 255.5S845.4 959.6 704.3 959.6 448.8 845.2 448.8 704.1s114.5-255.5 255.5-255.5zM529.1 615.9c0 9.3 6.6 13 6.6 13l100.9 69.2s6.4 2.3 11.8 1.2c5.9-1.2 5.8-5.5 5.8-5.5v-53.2h98.2s77.4 10.4 77.4 39.1c0 0-1.3-90.2-79.9-90.2h-95.7v-56.8s0.2-3-5.8-4.3c-5-1.1-9.8 2.3-9.8 2.3l-100.3 71.1c0.2-0.1-9.2 4.6-9.2 14.1z m341.1 190.6s9.4-4.7 9.4-14.2c0-9.3-6.6-13-6.6-13L772 710c-3.1-1.6-6.6-2-9.9-1.1-7.1 1.8-7.4 5.4-7.4 5.4v53.2h-98.6s-77.4-10.4-77.4-39.1c0 0 1.3 90.2 80 90.2h96.1v57s1.1 3.4 7.4 4.2c4.2 0.6 6.9-1.6 7.8-2.2l100.2-71.1z" p-id="16743" fill="#e6e6e6"></path></svg>
