<svg t="1708081118949" class="icon" viewBox="0 0 1024 1024" version="1.1" xmlns="http://www.w3.org/2000/svg" p-id="5926" width="200" height="200"><path d="M125.387755 789.023347V881.893878h773.22449v-92.870531h62.693877V913.240816a31.346939 31.346939 0 0 1-31.346938 31.346939H94.040816a31.346939 31.346939 0 0 1-31.346938-31.346939v-124.217469h62.693877zM651.326694 32.997878L905.696653 287.346939v44.324571L651.326694 586.062367l-44.324572-44.345469 232.176327-232.176327L607.02302 77.322449l44.303674-44.324571z" fill="#515151" p-id="5927"></path><path d="M303.104 352.945633c145.282612-57.511184 347.888327-74.772898 580.419918-74.772898h31.346939v62.693877h-31.346939c-231.862857 0-424.019592 17.575184-557.348571 70.363429-66.162939 26.185143-115.962776 60.332408-149.253225 103.549388C143.945143 557.599347 125.387755 611.578776 125.387755 681.043592v31.346939h-62.693877v-31.346939c0-81.460245 22.089143-149.378612 64.574693-204.528327 42.172082-54.752653 102.671673-94.605061 175.835429-123.569632z" fill="#515151" p-id="5928"></path></svg>
