<svg t="1707648845462" class="icon" viewBox="0 0 1024 1024" version="1.1" xmlns="http://www.w3.org/2000/svg" p-id="33347" width="200" height="200"><path d="M829.9 60.2l-361.7-3.9L49.9 623.1l472 348.4 415.5-563 2.8-3.8L829.9 60.2zM518.1 945.4L76 619.2 477.6 75l338.7 3.7 103.4 322.6-401.6 544.1z" fill="" p-id="33348"></path><path d="M694 162.4c-40.5 0-73.4 32.9-73.4 73.4s32.9 73.4 73.4 73.4 73.4-32.9 73.4-73.4-32.9-73.4-73.4-73.4z m0 128.3c-30.2 0-54.8-24.6-54.8-54.8s24.6-54.8 54.8-54.8 54.8 24.6 54.8 54.8-24.6 54.8-54.8 54.8zM221.137 594.42l11.21-14.842 229.744 173.517-11.21 14.843z" fill="" p-id="33349"></path><path d="M497.50376 801.286804a13.6 13.6 0 1 0 26.471993-6.250884 13.6 13.6 0 1 0-26.471993 6.250884Z" fill="" p-id="33350"></path></svg>
